<svg width="16" height="16" viewBox="0 0 16 16" fill="none" xmlns="http://www.w3.org/2000/svg">
<path fill-rule="evenodd" clip-rule="evenodd" d="M9.59097 7.01679H11.6669C11.9816 7.01679 12.2289 6.75575 12.2289 6.44096C12.2289 6.1185 11.9816 5.86513 11.6669 5.86513H9.59097C9.27622 5.86513 9.02891 6.1185 9.02891 6.44096C9.02891 6.75575 9.27622 7.01679 9.59097 7.01679ZM14.1324 3.02514C14.5896 3.02514 14.8893 3.18637 15.1891 3.53955C15.4889 3.89272 15.5413 4.39945 15.4739 4.85935L14.7619 9.89594C14.627 10.8641 13.8177 11.5774 12.8659 11.5774H4.68979C3.69307 11.5774 2.86871 10.795 2.78627 9.78154L2.09681 1.41204L0.965194 1.21242C0.665428 1.15868 0.455591 0.859248 0.50805 0.552139C0.560509 0.238119 0.852782 0.0300525 1.16004 0.0768867L2.9474 0.352517C3.2022 0.399352 3.38955 0.61356 3.41204 0.874603L3.55443 2.59442C3.57691 2.84087 3.77176 3.02514 4.01157 3.02514H14.1324ZM4.56973 12.7908C3.94023 12.7908 3.43062 13.3129 3.43062 13.9578C3.43062 14.5951 3.94023 15.1172 4.56973 15.1172C5.19175 15.1172 5.70135 14.5951 5.70135 13.9578C5.70135 13.3129 5.19175 12.7908 4.56973 12.7908ZM13.0007 12.7908C12.3712 12.7908 11.8616 13.3129 11.8616 13.9578C11.8616 14.5951 12.3712 15.1172 13.0007 15.1172C13.6227 15.1172 14.1323 14.5951 14.1323 13.9578C14.1323 13.3129 13.6227 12.7908 13.0007 12.7908Z" fill="#A6ABC8"/>
</svg>
