<svg width="16" height="16" viewBox="0 0 16 16" fill="none" xmlns="http://www.w3.org/2000/svg">
<path fill-rule="evenodd" clip-rule="evenodd" d="M4.49799 0.939453H11.5022C14.053 0.939453 15.493 2.39072 15.5005 4.94945V11.9763C15.5005 14.5343 14.053 15.9863 11.5022 15.9863H4.49799C1.94724 15.9863 0.500488 14.5343 0.500488 11.9763V4.94945C0.500488 2.39072 1.94724 0.939453 4.49799 0.939453ZM8.03729 12.8716C8.36054 12.8716 8.62979 12.6309 8.65979 12.3074V4.64098C8.68979 4.40776 8.57804 4.17378 8.37554 4.04663C8.16479 3.91873 7.90979 3.91873 7.70804 4.04663C7.50479 4.17378 7.39304 4.40776 7.41479 4.64098V12.3074C7.45304 12.6309 7.72229 12.8716 8.03729 12.8716ZM11.488 12.8716C11.803 12.8716 12.0723 12.6309 12.1105 12.3074V9.83968C12.1323 9.59818 12.0205 9.37323 11.8173 9.24533C11.6155 9.11743 11.3605 9.11743 11.1505 9.24533C10.9473 9.37323 10.8355 9.59818 10.8655 9.83968V12.3074C10.8955 12.6309 11.1648 12.8716 11.488 12.8716ZM5.16476 12.3074C5.13476 12.6309 4.86551 12.8716 4.54226 12.8716C4.21976 12.8716 3.94976 12.6309 3.92051 12.3074V7.10867C3.89801 6.87469 4.00976 6.64222 4.21301 6.51432C4.41476 6.38642 4.67051 6.38642 4.87301 6.51432C5.07476 6.64222 5.18801 6.87469 5.16476 7.10867V12.3074Z" fill="#A6ABC8"/>
</svg>
