<svg width="16" height="16" viewBox="0 0 16 16" fill="none" xmlns="http://www.w3.org/2000/svg">
<path fill-rule="evenodd" clip-rule="evenodd" d="M0.5 7.86775C0.5 3.90447 3.6575 0.333008 8.015 0.333008C12.275 0.333008 15.5 3.83666 15.5 7.84514C15.5 12.4941 11.72 15.3799 8 15.3799C6.77 15.3799 5.405 15.0484 4.31 14.4004C3.9275 14.1668 3.605 13.9935 3.1925 14.1291L1.6775 14.5812C1.295 14.7018 0.95 14.4004 1.0625 13.9935L1.565 12.3057C1.6475 12.0721 1.6325 11.8235 1.5125 11.6276C0.8675 10.4371 0.5 9.13358 0.5 7.86775ZM7.02491 7.86775C7.02491 8.40272 7.45241 8.8322 7.98491 8.83973C8.51741 8.83973 8.94491 8.40272 8.94491 7.87528C8.94491 7.34032 8.51741 6.91084 7.98491 6.91084C7.45991 6.9033 7.02491 7.34032 7.02491 7.86775ZM10.4825 7.87529C10.4825 8.40272 10.91 8.83973 11.4425 8.83973C11.975 8.83973 12.4025 8.40272 12.4025 7.87529C12.4025 7.34032 11.975 6.91084 11.4425 6.91084C10.91 6.91084 10.4825 7.34032 10.4825 7.87529ZM4.52758 8.83974C4.00258 8.83974 3.56758 8.40272 3.56758 7.87529C3.56758 7.34032 3.99508 6.91084 4.52758 6.91084C5.06008 6.91084 5.48758 7.34032 5.48758 7.87529C5.48758 8.40272 5.06008 8.8322 4.52758 8.83974Z" fill="#A6ABC8"/>
</svg>
