<svg width="14" height="16" viewBox="0 0 14 16" fill="none" xmlns="http://www.w3.org/2000/svg">
<path fill-rule="evenodd" clip-rule="evenodd" d="M3.8575 0.201172H10.1432C12.46 0.201172 13.75 1.54034 13.75 3.83499V11.6067C13.75 13.939 12.46 15.248 10.1432 15.248H3.8575C1.5775 15.248 0.25 13.939 0.25 11.6067V3.83499C0.25 1.54034 1.5775 0.201172 3.8575 0.201172ZM4.06011 3.7071V3.69957H6.30185C6.6251 3.69957 6.8876 3.96289 6.8876 4.28565C6.8876 4.61743 6.6251 4.88075 6.30185 4.88075H4.06011C3.73686 4.88075 3.47511 4.61743 3.47511 4.29393C3.47511 3.97042 3.73686 3.7071 4.06011 3.7071ZM4.06011 8.28134H9.9401C10.2626 8.28134 10.5251 8.01802 10.5251 7.69451C10.5251 7.37101 10.2626 7.10693 9.9401 7.10693H4.06011C3.73686 7.10693 3.47511 7.37101 3.47511 7.69451C3.47511 8.01802 3.73686 8.28134 4.06011 8.28134ZM4.06002 11.7196H9.94002C10.2393 11.6895 10.465 11.4329 10.465 11.1327C10.465 10.8243 10.2393 10.5685 9.94002 10.5384H4.06002C3.83502 10.5158 3.61752 10.6211 3.49752 10.8167C3.37752 11.0048 3.37752 11.2531 3.49752 11.4487C3.61752 11.6368 3.83502 11.7496 4.06002 11.7196Z" fill="#A6ABC8"/>
</svg>
