<svg width="16" height="16" viewBox="0 0 16 16" fill="none" xmlns="http://www.w3.org/2000/svg">
<path fill-rule="evenodd" clip-rule="evenodd" d="M4.7525 0.0166016H11.255C13.7975 0.0166016 15.5 1.80718 15.5 4.47048V10.6179C15.5 13.2737 13.7975 15.0635 11.255 15.0635H4.7525C2.21 15.0635 0.5 13.2737 0.5 10.6179V4.47048C0.5 1.80718 2.21 0.0166016 4.7525 0.0166016ZM7.99256 5.32891C7.64006 5.32891 7.34756 5.03475 7.34756 4.67438C7.34756 4.30573 7.64006 4.01231 8.00756 4.01231C8.36756 4.01231 8.66006 4.30573 8.66006 4.67438C8.66006 5.03475 8.36756 5.32891 7.99256 5.32891ZM8.65244 10.3846C8.65244 10.7458 8.35994 11.0392 7.99244 11.0392C7.63244 11.0392 7.33994 10.7458 7.33994 10.3846V7.05928C7.33994 6.6974 7.63244 6.39722 7.99244 6.39722C8.35994 6.39722 8.65244 6.6974 8.65244 7.05928V10.3846Z" fill="#A6ABC8"/>
</svg>
