<svg width="16" height="16" viewBox="0 0 16 16" fill="none" xmlns="http://www.w3.org/2000/svg">
<path fill-rule="evenodd" clip-rule="evenodd" d="M14.3018 9.33519C14.57 9.47813 14.777 9.70384 14.9226 9.92954C15.2062 10.396 15.1832 10.9678 14.9073 11.4718L14.3707 12.3747C14.0871 12.8562 13.5583 13.1571 13.0141 13.1571C12.7458 13.1571 12.4469 13.0819 12.2016 12.9314C12.0024 12.8035 11.7724 12.7584 11.5271 12.7584C10.7683 12.7584 10.1322 13.3828 10.1092 14.1276C10.1092 14.9928 9.40403 15.6699 8.52259 15.6699H7.48019C6.59109 15.6699 5.88594 14.9928 5.88594 14.1276C5.87061 13.3828 5.23444 12.7584 4.47564 12.7584C4.2227 12.7584 3.99276 12.8035 3.80115 12.9314C3.55588 13.0819 3.24929 13.1571 2.98869 13.1571C2.43683 13.1571 1.90797 12.8562 1.62438 12.3747L1.09551 11.4718C0.811922 10.9828 0.796592 10.396 1.08019 9.92954C1.20282 9.70384 1.43276 9.47813 1.69336 9.33519C1.90797 9.22986 2.04594 9.05682 2.17623 8.85369C2.55947 8.20667 2.32953 7.35652 1.67803 6.97283C0.919227 6.54399 0.673957 5.58852 1.11084 4.8437L1.62438 3.95593C2.06893 3.21111 3.01935 2.94779 3.78582 3.38415C4.45264 3.74527 5.31875 3.50452 5.70965 2.86503C5.83229 2.65438 5.90127 2.42867 5.88594 2.20297C5.87061 1.90955 5.95492 1.63119 6.10055 1.40548C6.38414 0.939031 6.89768 0.638094 7.4572 0.623047H8.53792C9.10511 0.623047 9.61864 0.939031 9.90223 1.40548C10.0402 1.63119 10.1322 1.90955 10.1092 2.20297C10.0938 2.42867 10.1628 2.65438 10.2855 2.86503C10.6764 3.50452 11.5425 3.74527 12.217 3.38415C12.9758 2.94779 13.9339 3.21111 14.3707 3.95593L14.8843 4.8437C15.3288 5.58852 15.0836 6.54399 14.3171 6.97283C13.6656 7.35652 13.4356 8.20667 13.8265 8.85369C13.9492 9.05682 14.0871 9.22986 14.3018 9.33519ZM5.83221 8.15401C5.83221 9.33519 6.80562 10.2756 8.00898 10.2756C9.21233 10.2756 10.1628 9.33519 10.1628 8.15401C10.1628 6.97283 9.21233 6.02488 8.00898 6.02488C6.80562 6.02488 5.83221 6.97283 5.83221 8.15401Z" fill="#A6ABC8"/>
</svg>
