<svg width="16" height="15" viewBox="0 0 16 15" fill="none" xmlns="http://www.w3.org/2000/svg">
<path fill-rule="evenodd" clip-rule="evenodd" d="M12.3267 4.5558H15.5C15.5 1.99993 13.9733 0.506836 11.3867 0.506836H4.61333C2.02667 0.506836 0.5 1.99993 0.5 4.5232V10.0327C0.5 12.5559 2.02667 14.049 4.61333 14.049H11.3867C13.9733 14.049 15.5 12.5559 15.5 10.0327V9.79794H12.3267C10.8539 9.79794 9.66 8.63028 9.66 7.18991C9.66 5.74953 10.8539 4.58188 12.3267 4.58188V4.5558ZM12.3265 5.67726H14.9399C15.2492 5.67726 15.4999 5.92246 15.4999 6.22494V8.1288C15.4963 8.42981 15.2477 8.67297 14.9399 8.67649H12.3865C11.641 8.6863 10.989 8.18705 10.8199 7.4768C10.7352 7.0359 10.8541 6.58094 11.1447 6.23384C11.4353 5.88675 11.8679 5.68302 12.3265 5.67726ZM12.4399 7.67892H12.6866C13.0032 7.67892 13.2599 7.42788 13.2599 7.1182C13.2599 6.80852 13.0032 6.55747 12.6866 6.55747H12.4399C12.2884 6.55573 12.1426 6.61335 12.0349 6.71747C11.9272 6.8216 11.8665 6.96356 11.8666 7.11168C11.8665 7.42243 12.1222 7.67535 12.4399 7.67892ZM4.05343 4.55581H8.28677C8.60341 4.55581 8.8601 4.30476 8.8601 3.99508C8.8601 3.6854 8.60341 3.43436 8.28677 3.43436H4.05343C3.73938 3.43433 3.48375 3.68143 3.4801 3.98856C3.48008 4.29931 3.73572 4.55224 4.05343 4.55581Z" fill="#A6ABC8"/>
</svg>
